<?xml version="1.0" encoding="utf-8"?>
<svg version="1.1" id="Layer_1" xmlns="http://www.w3.org/2000/svg" xmlns:xlink="http://www.w3.org/1999/xlink" x="0px" y="0px"
	 viewBox="0 0 3658.147 4000" enable-background="new 0 0 3658.147 4000" xml:space="preserve">
<g>
	<path d="M3657.75,1005.732c-10.425-86.51-217.904-202.243-274.219-308.675c-20.427-38.608,27.09-118.587-17.707-145.484
		c3.264-76.093-123.306-112.463-125.385-205.306c124.846-18.793,202.896-72.266,185.205-196.69
		c-114.92-18.473-227.494-54.18-308.197-87.1c-86.03-35.093-197.072-56.781-307.118-61.692
		c-116.063-5.183-229.168,16.646-333.389,25.953c-262.33,23.423-232.9,98.79-402.766,157.298
		c-177.234,61.046-425.547,133.226-494.295,288.856c-125.888,284.968,66.511,484.869,92.297,651.048
		c54.433,350.798-14.131,607.75-256.512,637.45c71.029,103.842,219.941,130.338,401.996,76.571
		c-16.336,33.16-32.278,66.514-47.84,100.044c-13.048,28.113-25.339,56.442-37.429,84.984c-3.075,7.259-5.849,13.36-14.184,14.42
		c-10.852,1.38-23.261-1.159-34.216-1.919c-11.172-0.775-22.338-1.641-33.495-2.599c-22.21-1.906-44.389-4.174-66.524-6.803
		c-43.888-5.214-87.607-11.853-131.063-19.91c-85.666-15.884-170.306-37.29-253.218-64.061
		c-81.733-26.39-161.779-57.99-239.507-94.529c-77.001-36.198-151.722-77.238-223.596-122.775
		c-71.483-45.289-140.147-95.022-205.484-148.799c-65.191-53.657-127.069-111.338-185.171-172.601
		c-17.721-18.685-35.091-37.703-52.098-57.04c-8.646-9.83-17.197-19.743-25.653-29.737c-2.409-2.847-25.403-27.329-24.288-29.248
		c-189.918,326.724-94.152,747.255,222.482,958.345c-117.508-3.656-228.227-36.036-325.367-89.829
		c0,370.755,258.49,649.27,576.051,712.883c-104.788,28.247-213.828,33.059-324.323,12.012
		c91.395,285.153,356.703,493.012,670.58,498.757C769.076,3610.078,398.088,3721.477,0,3677.244
		C317.533,3880.925,695.126,4000,1100.921,4000c246.332,0,492.887-38.96,724.684-123.286
		c208.227-75.751,402.687-187.539,573-329.271c162.215-134.993,302.03-296.211,414.972-474.374
		c109.631-172.939,194.206-361.768,250.601-558.597c17.344-60.532,32.016-121.831,43.882-183.671
		c5.961-31.064,11.202-62.262,15.738-93.566c5.214-35.981,4.844-71.585,25.637-102.959c22.218-33.523,46.41-67.529,71.389-99.142
		c50.523-63.942,94.935-107.817,147.398-142.614c39.49-26.19,89.81-60.618,112.463-101.456
		c10.227-4.701,22.517-11.996,30.149-25.844c65.132,5.171,110.489-71.704,106.177-148.352
		c-3.045-54.113-38.523-103.315-75.55-144.531c2.773-15.163,7.889-26.318,21.057-39.242c24.025-23.581,21.625-46.483,3.829-61.257
		c-5.422-4.5-14.976-4.77-11.486-15.315c6.592-19.922,19.878-36.03,27.276-55.992c8.634-23.289-0.365-33.362-14.834-35.894
		c-4.579-46.862-29.05-86.615-56.471-125.864l-0.217-14.98C3609.098,1116.78,3663.369,1052.354,3657.75,1005.732z"/>
	<path d="M3357.309,2939.803c0.66-0.29,1.323-0.573,1.983-0.864l-0.595-1.191
		C3358.238,2938.435,3357.769,2939.116,3357.309,2939.803z"/>
</g>
</svg>
